<?xml version="1.0" encoding="UTF-8" standalone="no"?><!DOCTYPE svg PUBLIC "-//W3C//DTD SVG 1.1//EN" "http://www.w3.org/Graphics/SVG/1.1/DTD/svg11.dtd"><svg width="100%" height="100%" viewBox="0 0 128 113" version="1.1" xmlns="http://www.w3.org/2000/svg" xmlns:xlink="http://www.w3.org/1999/xlink" xml:space="preserve" xmlns:serif="http://www.serif.com/" style="fill-rule:evenodd;clip-rule:evenodd;stroke-miterlimit:10;"><g id="Ebene_6"><path d="M58.345,107.496c-1,0.4 -1.8,0.1 -2,0.1c-0,-0 -0.6,-0.2 -1.2,-0.6c-2.4,-1.8 -1.4,-8.1 -1.4,-8.1c1.5,-9.7 9,-35.6 11.8,-47.9c1.9,-8.3 2.1,-12.4 1.7,-16.4c-0.6,-6 -2.7,-11.4 -1.7,-11.8c0.6,-0.3 2,1.6 2.7,2.8c0.9,1.4 1.6,3.4 1.7,6.7c0.1,4.1 -5.1,29 -7.6,39.7c-3.3,14.1 0.5,-1.6 -3.5,16.9c-1.1,5 -2.8,13.1 -0.9,14c1,0.4 2.4,-1.2 3,-0.6c0.6,0.5 -0.3,2.5 -0.7,3.4c-0.4,0.5 -0.9,1.4 -1.9,1.8Z" style="fill:#212529;fill-rule:nonzero;stroke:#212529;stroke-width:1px;"/><path d="M73.845,105.896c-0,-0 -1.1,-0.2 -2.1,-1.4c-3.8,-4.8 -1.8,-19.4 -1.8,-19.4c0.4,-3.2 1.4,-9.5 3.6,-18.3c1.5,-5.9 2.8,-10.4 4.1,-14.6c2.2,-7.3 3.9,-11.9 4.7,-14.2c3,-8.2 5.2,-13.9 6.5,-13.7c1,0.2 1.7,3.3 0.9,5.7c-0.6,2 -2,3.2 -2.4,3.6c-2.8,2.5 -4.6,7.6 -8,17.9c-0.5,1.4 -2.4,7.1 -4.3,15.4c-2.7,11.3 -3.2,18.1 -3.1,23.9c-0,-0 0.2,11.4 3.4,11.7c0.5,0.1 1.2,-0.3 1.5,0.1c0.4,0.5 -0.1,1.8 -1,2.5c-0.8,1 -1.8,0.8 -2,0.8Z" style="fill:#212529;fill-rule:nonzero;stroke:#212529;stroke-width:1px;"/><path d="M107.545,93.996c-5.2,-0 -11.4,-1.8 -18.5,-5.3c-1.8,-0.9 -3.1,-1.6 -4.4,-2.4c-1.6,-1 -3.1,-2 -4.8,-3.4c-3,-2.7 -4.3,-5 -5.2,-4.7c-0.3,0.1 -0.5,0.4 -0.7,1.2c-0.8,0.3 -2,0.8 -3.4,1.4c-8.2,3.1 -20,7.5 -31.5,5.6c-2,-0.3 -15.6,-2.6 -22.3,-13.4c-10.2,-16.5 4.4,-38.9 6.8,-42.6c0.6,-0.9 13.1,-19.5 35.7,-24.2c8.5,-1.8 14.9,-0.8 16.7,-0.5c5.1,0.9 15.9,2.7 21.4,11c7,10.7 0.6,25 -1.2,28.9c-6.3,14 -18,20.4 -24.9,24.2c-1.3,0.7 -2.6,1.3 -3.8,1.9c0.8,0.6 1.7,1.1 2.6,1.8c1.6,1.1 3,2 4.2,2.9c5.1,-2 8.7,-4.4 11,-6.2c4,-3.1 9.6,-7.5 9,-12c-0.1,-1.1 -0.6,-2.2 -0.2,-3.7c0.7,-2.3 3,-4 3.9,-3.6c0.9,0.5 0.4,3.7 -0.2,7.3c-0.1,0.3 -0.1,0.8 -0.2,1c-1.4,5.8 -11.2,12.7 -11.2,12.7c-3.8,2.6 -9.1,5.9 -15.9,9c1.1,1.4 2.7,3.2 4.8,5.1c9,8.2 25.5,16.3 36.1,10.6c6.3,-3.4 9.3,-11.1 10.9,-10.2c0.7,0.4 0.7,2 0.2,3.2c-1.5,3.6 -8.5,4.1 -13,4.5c-0.6,-0.1 -1.1,-0.1 -1.9,-0.1Zm-30,-86.6c-14,-4.2 -35.3,-3.9 -52.1,9.9c-3.1,2.5 -25.4,20.8 -19.4,42.2c4.2,15.1 20.5,23.5 32.9,25.2c18.8,2.5 37,-9.6 37.6,-8.2c0.2,0.5 -2.5,2.3 -4.6,3.6c-1,-0.6 -2.7,-1.6 -4.8,-3.1c-7,-4.9 -8.5,-7.7 -14.8,-11.6c-2.7,-1.7 -4.6,-2.9 -7.6,-3.7c-2.3,-0.7 -7.7,-2.2 -12.5,0.5c-0.8,0.5 -3,1.7 -4.3,4.3c-0.3,0.6 -1.9,3.8 -0.9,6.1c2.2,4.8 14.7,3.2 14.7,3.2c-0,-0 -8.2,1.4 -10.6,-2.4c-1.6,-2.7 -0.1,-7.3 2.6,-9.7c3.5,-3.2 8.6,-2.4 13,-1.7c3.9,0.6 11,2.4 18.7,8.3c1.6,-0.7 3.2,-1.4 4.9,-2.3c5.1,-2.8 18.2,-9.7 24.1,-23.3c1.3,-2.9 6.7,-16 0.3,-26.5c-4.3,-6.8 -11.7,-9.1 -17.2,-10.8Z" style="fill:#212529;fill-rule:nonzero;stroke:#212529;stroke-width:1px;"/><path d="M96.845,54.396c0.1,0.8 0.2,2.1 -0,3.6c-0.3,2 -1.5,6.4 -11,13c-7.6,5.3 -14.4,7.7 -15.8,8.2c-7.7,2.7 -18.7,6.5 -30.9,2.6c-4.2,-1.3 -8.2,-2.7 -11.2,-6.4c-8.8,-10.7 -0.9,-31.8 8,-43.7c9.8,-13.1 25.8,-21.8 41.8,-21.2c4.9,0.2 13.9,0.5 18.9,6.9c7.1,9.2 0.5,23.9 -1.3,27.8c-6.2,13.7 -17.8,20 -24.5,23.7c-9.2,5 -17,5.8 -22.2,6.4c-6.3,0.7 -14.5,1.6 -16.6,-2.3c-1.4,-2.5 0.1,-6.5 2.6,-8.7c1.4,-1.3 4.3,-2.8 12,-1.3c7.3,1.5 13,4.5 23,11.2c12.8,8.7 12.8,10 19.9,13.5c11.2,5.6 17.3,5.3 19.9,5.1c5.2,-0.5 9.3,-2.4 11.7,-3.8" style="fill:none;fill-rule:nonzero;stroke:#212529;stroke-width:1px;"/></g></svg>